<svg width="32" height="32" viewBox="0 0 32 32" fill="none" xmlns="http://www.w3.org/2000/svg">
<path fill-rule="evenodd" clip-rule="evenodd" d="M22.107 14.6828L19.0536 11.6355V11.6222C18.5203 11.09 18.5203 10.2516 19.0536 9.73269C19.5736 9.20043 20.4136 9.20043 20.947 9.73269L26.2803 15.0553C26.5948 15.3611 26.7191 15.7934 26.6532 16.2021C26.6021 16.5576 26.4088 16.8688 26.1333 17.0762L20.9327 22.2663C20.6794 22.5058 20.3327 22.6522 19.9861 22.6522L19.9994 22.6668C19.6394 22.6668 19.2927 22.5205 19.0527 22.2809C18.5194 21.762 18.5194 20.9104 19.0394 20.3914V20.3781L22.0795 17.3441H6.66666C5.91999 17.3441 5.33333 16.7453 5.33333 16.0134C5.33333 15.2682 5.91999 14.6828 6.66666 14.6828H22.107Z" fill="white"/>
</svg>
