<svg width="6" height="10" viewBox="0 0 6 10" fill="none" xmlns="http://www.w3.org/2000/svg">
<path fill-rule="evenodd" clip-rule="evenodd" d="M1.16786 9.66656C1.01209 9.66686 0.861133 9.61261 0.741191 9.51322H0.741191C0.457745 9.27823 0.418466 8.85795 0.653459 8.5745C0.653814 8.57408 0.654169 8.57365 0.654525 8.57322L3.64119 4.99989L0.761191 1.41989H0.761191C0.529086 1.13407 0.572627 0.714214 0.858443 0.482108C0.859357 0.481365 0.860273 0.480625 0.861191 0.479888V0.479888C1.13761 0.236672 1.55886 0.263591 1.80208 0.540014C1.8134 0.552883 1.82422 0.566184 1.83452 0.579888L5.05452 4.57989C5.25673 4.82589 5.25673 5.18055 5.05452 5.42655L1.72119 9.42655H1.72119C1.58555 9.59019 1.38001 9.67933 1.16785 9.66655L1.16786 9.66656Z" fill="white"/>
</svg>
