<svg width="16" height="16" viewBox="0 0 16 16" fill="none" xmlns="http://www.w3.org/2000/svg">
<path fill-rule="evenodd" clip-rule="evenodd" d="M11.0535 7.34138L9.52681 5.81776V5.81111C9.26015 5.54498 9.26015 5.12582 9.52681 4.86635C9.78681 4.60022 10.2068 4.60022 10.4735 4.86635L13.1401 7.52766C13.2974 7.68055 13.3595 7.8967 13.3266 8.10108C13.301 8.27878 13.2044 8.4344 13.0666 8.5381L10.4664 11.1332C10.3397 11.2529 10.1664 11.3261 9.99302 11.3261L9.99969 11.3334C9.81968 11.3334 9.64635 11.2602 9.52635 11.1405C9.25968 10.881 9.25968 10.4552 9.51968 10.1957V10.1891L11.0398 8.67203H3.33332C2.95999 8.67203 2.66666 8.37264 2.66666 8.00671C2.66666 7.63412 2.95999 7.34138 3.33332 7.34138H11.0535Z" fill="#0075FF"/>
</svg>
