<svg width="1220" height="1061" viewBox="0 0 1220 1061" fill="none" xmlns="http://www.w3.org/2000/svg">
<g opacity="0.1">
<rect opacity="0.1" width="221.488" height="226.938" rx="42.1416" transform="matrix(1 2.22734e-09 -0.180862 0.983508 673.351 -68.8262)" fill="#777777"/>
<rect opacity="0.1" width="150.207" height="153.904" rx="34.2024" transform="matrix(1 2.22734e-09 -0.180862 0.983508 185.359 598.763)" fill="#777777"/>
<rect opacity="0.1" width="84.5086" height="86.5884" rx="28.0944" transform="matrix(1 2.22734e-09 -0.180862 0.983508 34.0381 756.742)" fill="#777777"/>
<rect opacity="0.6" width="409.384" height="628.265" rx="54.7239" transform="matrix(1 2.22734e-09 -0.180862 0.983508 1105.95 -183.932)" fill="#777777"/>
<rect opacity="0.5" width="472.81" height="815.902" rx="54.7239" transform="matrix(1 2.22734e-09 -0.180862 0.983508 470.156 258.554)" fill="#777777"/>
<rect opacity="0.3" width="385.672" height="665.048" rx="54.7239" transform="matrix(1 2.52462e-09 -0.160147 0.987093 106.506 -168.886)" fill="#777777"/>
</g>
</svg>
