<svg width="32" height="32" viewBox="0 0 32 32" fill="none" xmlns="http://www.w3.org/2000/svg">
<rect x="0.5" y="0.5" width="31" height="31" rx="15.5" fill="white"/>
<rect x="0.5" y="0.5" width="31" height="31" rx="15.5" stroke="#D3D3D3"/>
<path fill-rule="evenodd" clip-rule="evenodd" d="M16 10.6665C18.8606 10.6665 21.2418 12.2856 23.1097 15.4358L23.2562 15.6885L23.2868 15.7551L23.306 15.8105L23.3157 15.8469L23.3253 15.9018L23.3327 15.9688L23.3321 16.0424L23.3233 16.1161C23.319 16.1406 23.3132 16.165 23.306 16.1892L23.2802 16.2609L23.2562 16.3112L23.2455 16.3306C21.4026 19.5554 19.0457 21.2514 16.2085 21.3303L16 21.3332C13.0696 21.3332 10.6423 19.6341 8.75451 16.3306C8.63738 16.1256 8.63738 15.874 8.75451 15.6691C10.6423 12.3656 13.0696 10.6665 16 10.6665ZM16 11.9998C13.7269 11.9998 11.7994 13.263 10.1857 15.8704L10.1073 15.9998L10.1857 16.1292C11.7533 18.6622 13.617 19.9266 15.806 19.9967L16 19.9998C18.2731 19.9998 20.2005 18.7367 21.8143 16.1292L21.892 15.9998L21.8143 15.8704C20.2467 13.3375 18.383 12.0731 16.194 12.0029L16 11.9998ZM16 13.9998C14.8954 13.9998 14 14.8953 14 15.9998C14 17.1044 14.8954 17.9998 16 17.9998C17.1046 17.9998 18 17.1044 18 15.9998C18 14.8953 17.1046 13.9998 16 13.9998ZM16 15.3332C16.3682 15.3332 16.6667 15.6316 16.6667 15.9998C16.6667 16.368 16.3682 16.6665 16 16.6665C15.6318 16.6665 15.3333 16.368 15.3333 15.9998C15.3333 15.6316 15.6318 15.3332 16 15.3332Z" fill="#9A9A9A"/>
</svg>
