<svg width="32" height="32" viewBox="0 0 32 32" fill="none" xmlns="http://www.w3.org/2000/svg">
<rect x="0.5" y="0.5" width="31" height="31" rx="15.5" fill="white"/>
<rect x="0.5" y="0.5" width="31" height="31" rx="15.5" stroke="#D3D3D3"/>
<path fill-rule="evenodd" clip-rule="evenodd" d="M16.0009 22C15.8237 22.001 15.6534 21.9315 15.5276 21.8067L10.3476 16.62C8.99526 15.2536 8.99526 13.0531 10.3476 11.6867C11.711 10.3271 13.9175 10.3271 15.2809 11.6867L16.0009 12.4067L16.7209 11.6867C18.0843 10.3271 20.2908 10.3271 21.6542 11.6867V11.6867C23.0065 13.0531 23.0065 15.2536 21.6542 16.62L16.4742 21.8067C16.3484 21.9315 16.1781 22.001 16.0009 22ZM12.8153 12C12.2453 11.9974 11.6979 12.2231 11.2953 12.6267L11.2953 12.6267C10.4571 13.4693 10.4571 14.8307 11.2953 15.6734L16.002 20.3867L20.7086 15.6734C21.5468 14.8307 21.5468 13.4693 20.7086 12.6267C19.8556 11.8207 18.5217 11.8207 17.6686 12.6267L16.4753 13.8267C16.216 14.0881 15.7939 14.0898 15.5325 13.8306C15.5312 13.8293 15.5299 13.828 15.5286 13.8267L14.3353 12.6267C13.9327 12.2231 13.3854 11.9974 12.8153 12L12.8153 12Z" fill="#9A9A9A"/>
</svg>
