<svg width="32" height="32" viewBox="0 0 32 32" fill="none" xmlns="http://www.w3.org/2000/svg">
<rect x="0.5" y="0.5" width="31" height="31" rx="15.5" fill="white"/>
<rect x="0.5" y="0.5" width="31" height="31" rx="15.5" stroke="#D3D3D3"/>
<path fill-rule="evenodd" clip-rule="evenodd" d="M16.8597 14.4818C16.9797 14.6016 17.153 14.6749 17.333 14.6749L17.3197 14.6609C17.493 14.6609 17.6664 14.5877 17.793 14.4678H17.7997C18.0597 14.208 18.0597 13.7818 17.7997 13.5287L16.9432 12.6768H18.6667C19.0333 12.6768 19.3333 12.9699 19.3333 13.3428V18.118C18.5556 18.3916 18 19.1309 18 20.0028C18 21.1017 18.8933 22.0008 20 22.0008C21.1 22.0008 22 21.1017 22 20.0028C22 19.1319 21.4415 18.3932 20.6667 18.1189V13.3428C20.6667 12.2373 19.7667 11.3448 18.6667 11.3448H16.9286L17.7997 10.4784C18.0597 10.212 18.0597 9.79245 17.7997 9.53271C17.533 9.26698 17.113 9.26698 16.853 9.53338L14.853 11.5314V11.538C14.593 11.7978 14.593 12.224 14.8597 12.4838L16.8597 14.4818ZM10 12.0108C10 12.8775 10.5556 13.6199 11.3333 13.8949V18.6708C11.3333 19.7697 12.2267 20.6688 13.3333 20.6688H15.044L14.187 21.5213V21.528C13.927 21.7877 13.927 22.2139 14.1936 22.4737C14.3136 22.5936 14.487 22.6668 14.667 22.6668L14.6536 22.6528C14.827 22.6528 15.0003 22.5796 15.127 22.4597L17.0246 20.564C17.2099 20.4454 17.3333 20.2378 17.3333 20.0028C17.3333 19.9076 17.3138 19.8175 17.2785 19.7362C17.246 19.6579 17.1977 19.585 17.1336 19.5226L15.1336 17.5246C14.867 17.2582 14.447 17.2582 14.187 17.5246C13.9203 17.7844 13.9203 18.204 14.187 18.4704V18.471L15.0574 19.3368H13.3333C12.96 19.3368 12.6667 19.0371 12.6667 18.6708V13.8933C13.4414 13.6176 13.9999 12.876 14 12.0105C13.9998 10.9051 13.0999 10.0128 12 10.0128C10.8933 10.0128 10 10.9053 10 12.0108ZM11.3333 12.0108C11.3333 11.6379 11.6267 11.3448 12 11.3448C12.3667 11.3448 12.6667 11.6379 12.6667 12.0108C12.6667 12.3771 12.3667 12.6768 12 12.6768C11.6267 12.6768 11.3333 12.3771 11.3333 12.0108ZM19.3333 20.0028C19.3333 19.6299 19.6267 19.3368 20 19.3368C20.3667 19.3368 20.6667 19.6299 20.6667 20.0028C20.6667 20.3691 20.3667 20.6688 20 20.6688C19.6267 20.6688 19.3333 20.3691 19.3333 20.0028Z" fill="#9A9A9A"/>
</svg>
