<svg width="160" height="24" viewBox="0 0 160 24" fill="none" xmlns="http://www.w3.org/2000/svg">
<g id="Group 1">
<g id="Group">
<path id="Vector" d="M57.7085 16.6831C57.7085 17.7894 57.5488 18.7533 57.2306 19.5724C56.9124 20.3915 56.4643 21.0693 55.8888 21.6081C55.3121 22.1457 54.6113 22.5478 53.7853 22.8132C52.9581 23.0786 52.0448 23.2107 51.0442 23.2107C50.0435 23.2107 49.0153 23.0591 47.9619 22.7558C46.9072 22.4525 45.9939 22.0125 45.2208 21.4369L47.0865 18.7751C47.6321 19.2599 48.2353 19.6206 48.8947 19.855C49.5541 20.0893 50.2021 20.2077 50.8397 20.2077C51.9311 20.2077 52.7387 19.9193 53.2626 19.3437C53.7853 18.767 54.0472 18.0019 54.0472 17.0461V16.3637H53.9794C53.6302 16.8186 53.1603 17.1828 52.5687 17.4551C51.977 17.7285 51.3027 17.8641 50.5444 17.8641C49.6805 17.8641 48.9142 17.709 48.2468 17.3976C47.5793 17.0874 47.0141 16.6658 46.5523 16.1351C46.0893 15.6043 45.7366 14.9862 45.4942 14.2809C45.2518 13.5755 45.13 12.8288 45.13 12.0407C45.13 11.2526 45.2506 10.5012 45.4942 9.78895C45.7366 9.07668 46.0893 8.44712 46.5523 7.90143C47.0141 7.35574 47.5793 6.92033 48.2468 6.59292C48.9142 6.26665 49.6725 6.10352 50.5215 6.10352C51.2337 6.10352 51.9161 6.24827 52.5687 6.53548C53.22 6.82383 53.7439 7.27072 54.138 7.8773H54.1839V6.42174H57.7097V16.6808L57.7085 16.6831ZM54.1598 12.02C54.1598 11.6409 54.0955 11.2767 53.9668 10.9286C53.8381 10.5793 53.652 10.2726 53.4096 10.0072C53.1672 9.74185 52.8788 9.53391 52.5457 9.38227C52.2114 9.23062 51.8323 9.1548 51.4083 9.1548C50.9844 9.1548 50.6088 9.23062 50.2825 9.38227C49.9562 9.53391 49.6794 9.73841 49.4519 9.99689C49.2244 10.2554 49.0498 10.5587 48.9292 10.9068C48.8074 11.256 48.7477 11.6271 48.7477 12.0211C48.7477 12.4152 48.8085 12.7644 48.9292 13.1125C49.0498 13.4618 49.2244 13.7685 49.4519 14.0339C49.6794 14.2992 49.9562 14.5118 50.2825 14.6703C50.6088 14.83 50.9833 14.9093 51.4083 14.9093C51.8334 14.9093 52.216 14.83 52.5572 14.6703C52.8984 14.5106 53.1867 14.3027 53.4211 14.0454C53.6555 13.788 53.8381 13.4847 53.9668 13.1355C54.0955 12.7862 54.1598 12.4152 54.1598 12.0211V12.02Z" fill="#393939"/>
<path id="Vector_2" d="M68.1246 17.7513V16.182H68.0787C67.942 16.4404 67.7639 16.6829 67.5445 16.9103C67.3239 17.1378 67.0666 17.3354 66.7713 17.502C66.4761 17.6685 66.1498 17.8053 65.7937 17.9109C65.4375 18.0166 65.0619 18.0706 64.6678 18.0706C63.9096 18.0706 63.2685 17.9339 62.7458 17.6617C62.2231 17.3882 61.798 17.0367 61.4718 16.6036C61.1455 16.1716 60.91 15.6788 60.7664 15.125C60.6216 14.5713 60.5504 14.0072 60.5504 13.4305V6.42498H64.3036V12.5666C64.3036 12.8848 64.3266 13.1881 64.3714 13.4765C64.4174 13.7648 64.5035 14.0222 64.6333 14.2496C64.762 14.4771 64.932 14.6552 65.1457 14.7838C65.3583 14.9125 65.6386 14.9768 65.9878 14.9768C66.6392 14.9768 67.1366 14.7344 67.4778 14.2485C67.819 13.7637 67.9902 13.195 67.9902 12.5425V6.42383H71.7205V17.7513H68.1269H68.1246Z" fill="#393939"/>
<path id="Vector_3" d="M78.6782 9.19898V13.5381C78.6782 14.0712 78.7805 14.4698 78.985 14.7375C79.1894 15.004 79.5571 15.1373 80.0878 15.1373C80.2693 15.1373 80.4635 15.1223 80.668 15.0913C80.8725 15.0614 81.0437 15.0155 81.1792 14.9546L81.2252 17.6842C80.9667 17.775 80.6416 17.8554 80.2475 17.9232C79.8535 17.991 79.4583 18.0254 79.0642 18.0254C78.306 18.0254 77.6684 17.9301 77.1537 17.7405C76.6379 17.551 76.2243 17.2775 75.9141 16.9191C75.6028 16.5618 75.3799 16.1356 75.2432 15.6416C75.1065 15.1476 75.0387 14.5962 75.0387 13.9884V9.19898H73.219V6.42342H75.0158V3.44336H78.6782V6.42342H81.34V9.19898H78.6782Z" fill="#393939"/>
<path id="Vector_4" d="M82.9351 7.97007C83.6026 7.33362 84.3792 6.8557 85.2661 6.53748C86.153 6.21925 87.0594 6.05957 87.9842 6.05957C88.909 6.05957 89.7465 6.17675 90.4071 6.41226C91.0665 6.64777 91.6007 7.01195 92.0108 7.50364C92.4198 7.99649 92.7197 8.61801 92.9092 9.36934C93.0988 10.1195 93.193 11.011 93.193 12.0415V17.7512H89.781V16.5461H89.7132C89.4248 17.0159 88.9894 17.3801 88.4058 17.6374C87.8222 17.8948 87.1892 18.0246 86.5068 18.0246C86.0519 18.0246 85.582 17.9637 85.096 17.8431C84.6101 17.7213 84.1666 17.5249 83.7657 17.2514C83.3636 16.978 83.0339 16.615 82.7766 16.1601C82.5181 15.7051 82.3894 15.1445 82.3894 14.477C82.3894 13.6579 82.6134 12.9985 83.0603 12.4976C83.5072 11.9967 84.0839 11.6107 84.7893 11.3373C85.4947 11.0639 86.2793 10.8823 87.1433 10.7916C88.0072 10.7008 88.8493 10.6549 89.6684 10.6549V10.4734C89.6684 9.91273 89.4708 9.49916 89.0767 9.23378C88.6827 8.9684 88.1967 8.83513 87.6212 8.83513C87.0904 8.83513 86.578 8.94887 86.0852 9.17633C85.5923 9.4038 85.1719 9.67722 84.8226 9.99545L82.9351 7.97122V7.97007ZM89.7821 12.8147H89.3042C88.8952 12.8147 88.4816 12.8342 88.0646 12.871C87.6476 12.9089 87.2765 12.9813 86.9502 13.0869C86.624 13.1926 86.3552 13.3489 86.1426 13.5534C85.9301 13.7579 85.8244 14.0278 85.8244 14.361C85.8244 14.5735 85.8738 14.755 85.9726 14.9067C86.0714 15.0583 86.1966 15.1801 86.3483 15.2709C86.4999 15.3616 86.6745 15.426 86.871 15.4639C87.0674 15.5018 87.2581 15.5213 87.4396 15.5213C88.1979 15.5213 88.778 15.3134 89.1801 14.8952C89.5822 14.4782 89.7833 13.9141 89.7833 13.2007V12.8135L89.7821 12.8147Z" fill="#393939"/>
<path id="Vector_5" d="M103.79 10.0859C103.578 9.81244 103.289 9.59302 102.926 9.42644C102.562 9.25986 102.191 9.17599 101.812 9.17599C101.433 9.17599 101.062 9.25526 100.743 9.41495C100.423 9.57464 100.151 9.78717 99.9234 10.0514C99.696 10.3168 99.5179 10.6235 99.3892 10.9728C99.2606 11.322 99.1962 11.6931 99.1962 12.0871C99.1962 12.4812 99.2571 12.8534 99.3777 13.2015C99.4984 13.5507 99.6764 13.8575 99.9119 14.1228C100.146 14.3882 100.428 14.5973 100.754 14.7478C101.08 14.8994 101.448 14.9753 101.857 14.9753C102.236 14.9753 102.611 14.904 102.983 14.7593C103.354 14.6157 103.654 14.4066 103.881 14.1343L105.951 16.6595C105.481 17.1144 104.875 17.4705 104.132 17.729C103.388 17.9863 102.6 18.1162 101.766 18.1162C100.871 18.1162 100.036 17.9795 99.2606 17.7072C98.4851 17.4338 97.8107 17.0363 97.2398 16.5124C96.6677 15.9897 96.2173 15.3567 95.8899 14.6134C95.5613 13.8701 95.3982 13.0292 95.3982 12.0883C95.3982 11.1474 95.5625 10.3294 95.8899 9.58612C96.2185 8.84283 96.6677 8.20983 97.2398 7.68711C97.8119 7.1644 98.4851 6.76231 99.2606 6.48199C100.036 6.20168 100.864 6.06152 101.743 6.06152C102.152 6.06152 102.558 6.09943 102.96 6.17526C103.362 6.25108 103.748 6.35333 104.12 6.48199C104.491 6.61066 104.832 6.77035 105.144 6.95991C105.454 7.14946 105.724 7.35855 105.951 7.58602L103.79 10.0882V10.0859Z" fill="#393939"/>
<path id="Vector_6" d="M114.871 17.7513V11.6097C114.871 11.2915 114.849 10.9882 114.804 10.6998C114.758 10.4114 114.67 10.1576 114.542 9.93813C114.413 9.7187 114.242 9.54408 114.029 9.41542C113.817 9.28675 113.543 9.22241 113.21 9.22241C112.558 9.22241 112.058 9.45333 111.709 9.9163C111.36 10.3793 111.186 10.9514 111.186 11.6338V17.7525H107.456V0.555664H111.186V7.85761H111.232C111.489 7.40267 111.899 6.99714 112.46 6.641C113.021 6.28486 113.696 6.10679 114.484 6.10679C115.272 6.10679 115.907 6.24351 116.429 6.51578C116.952 6.7892 117.377 7.14074 117.703 7.57385C118.03 8.00581 118.264 8.50325 118.409 9.06388C118.552 9.62565 118.625 10.1863 118.625 10.7469V17.7525H114.871V17.7513Z" fill="#393939"/>
<path id="Vector_7" d="M125.494 9.19898V13.5381C125.494 14.0712 125.596 14.4698 125.801 14.7375C126.005 15.0052 126.373 15.1373 126.904 15.1373C127.085 15.1373 127.279 15.1223 127.484 15.0913C127.688 15.0614 127.86 15.0155 127.996 14.9546L128.042 17.6842C127.784 17.775 127.459 17.8554 127.065 17.9232C126.67 17.991 126.275 18.0254 125.881 18.0254C125.123 18.0254 124.485 17.9301 123.971 17.7405C123.455 17.551 123.041 17.2775 122.731 16.9191C122.42 16.5618 122.197 16.1356 122.06 15.6416C121.924 15.1476 121.856 14.5962 121.856 13.9884V9.19898H120.036V6.42342H121.833V3.44336H125.495V6.42342H128.157V9.19898H125.495H125.494Z" fill="#393939"/>
<path id="Vector_8" d="M141.143 12.2242V12.6791C141.143 12.8308 141.135 12.9744 141.12 13.1111H132.909C132.938 13.4293 133.034 13.7176 133.193 13.975C133.353 14.2335 133.558 14.4563 133.808 14.6459C134.058 14.8355 134.339 14.9837 134.65 15.0893C134.96 15.195 135.283 15.249 135.617 15.249C136.209 15.249 136.709 15.1387 137.119 14.9193C137.528 14.6999 137.862 14.415 138.12 14.0657L140.712 15.704C140.182 16.4771 139.48 17.0722 138.609 17.4892C137.737 17.9063 136.725 18.1142 135.573 18.1142C134.724 18.1142 133.919 17.9809 133.161 17.7167C132.403 17.4513 131.739 17.0653 131.17 16.5564C130.602 16.0486 130.155 15.4225 129.829 14.6804C129.502 13.9371 129.339 13.0881 129.339 12.1323C129.339 11.1764 129.499 10.3688 129.817 9.61863C130.135 8.86845 130.567 8.23085 131.114 7.70813C131.661 7.18542 132.304 6.77988 133.048 6.49153C133.791 6.20317 134.594 6.05957 135.459 6.05957C136.324 6.05957 137.058 6.19972 137.757 6.48004C138.454 6.76035 139.054 7.16589 139.553 7.69665C140.054 8.22741 140.444 8.8719 140.725 9.63012C141.005 10.3883 141.146 11.2534 141.146 12.223L141.143 12.2242ZM137.708 10.7916C137.708 10.1999 137.522 9.69216 137.151 9.26709C136.779 8.84318 136.222 8.63064 135.48 8.63064C135.115 8.63064 134.782 8.68808 134.479 8.80067C134.176 8.9144 133.91 9.07064 133.683 9.26709C133.455 9.46469 133.274 9.69561 133.137 9.96099C133 10.2264 132.925 10.5032 132.91 10.7916H137.709H137.708Z" fill="#393939"/>
<path id="Vector_9" d="M149.168 0.730872L148.435 1.08398L158.119 21.1801L158.852 20.827L149.168 0.730872Z" fill="#393939"/>
<g id="Group_2">
<path id="Vector_10" d="M150.97 6.24741L150.972 6.19571C150.962 6.19227 150.951 6.18997 150.94 6.18652L150.97 6.24741Z" fill="#393939"/>
<path id="Vector_11" d="M149.517 6.16602C149.085 6.24643 148.689 6.40842 148.333 6.65541C147.802 7.02189 147.392 7.49521 147.105 8.07537H147.059V6.43714H143.465V17.7519H147.195V11.9446C147.195 11.7183 147.241 11.4529 147.332 11.1508C147.423 10.8486 147.571 10.5683 147.776 10.311C147.98 10.0536 148.254 9.83422 148.595 9.65271C148.936 9.47119 149.356 9.38043 149.857 9.38043C150.009 9.38043 150.164 9.38847 150.324 9.40341C150.483 9.41834 150.645 9.44936 150.813 9.49417L150.842 8.91056L149.52 6.16602H149.517Z" fill="#393939"/>
</g>
</g>
<g id="Group_3">
<path id="Vector_12" d="M10.236 17.7517L3.75322 7.22042H3.68544L3.77619 17.7517H0V1.64746H4.43562L10.8955 12.1569H10.9633L10.8725 1.64746H14.6487V17.7517H10.236Z" fill="#0075FF"/>
<path id="Vector_13" d="M29.0017 12.2242V12.6791C29.0017 12.8308 28.9936 12.9744 28.9787 13.1111H20.7669C20.7967 13.4293 20.8921 13.7176 21.0518 13.975C21.2115 14.2335 21.416 14.4563 21.6664 14.6459C21.9168 14.8355 22.1972 14.9837 22.5085 15.0893C22.8187 15.195 23.1415 15.249 23.4758 15.249C24.0674 15.249 24.5672 15.1387 24.9773 14.9193C25.3863 14.6999 25.7206 14.415 25.9779 14.0657L28.5708 15.704C28.0401 16.4771 27.3382 17.0722 26.4673 17.4892C25.5954 17.9063 24.5833 18.1142 23.431 18.1142C22.582 18.1142 21.7778 17.9809 21.0196 17.7167C20.2614 17.4513 19.5974 17.0653 19.0298 16.5564C18.4612 16.0486 18.0131 15.4225 17.688 14.6804C17.3617 13.9371 17.1986 13.0881 17.1986 12.1323C17.1986 11.1764 17.3583 10.3688 17.6765 9.61863C17.9947 8.86845 18.4267 8.23085 18.9735 7.70813C19.5204 7.18542 20.1637 6.77988 20.907 6.49153C21.6503 6.20317 22.4533 6.05957 23.3184 6.05957C24.1835 6.05957 24.9187 6.19972 25.6161 6.48004C26.3134 6.76035 26.9131 7.16589 27.4128 7.69665C27.9137 8.22741 28.3032 8.8719 28.5846 9.63012C28.8649 10.3883 29.0051 11.2534 29.0051 12.223L29.0017 12.2242ZM25.5667 10.7916C25.5667 10.1999 25.3806 9.69216 25.0095 9.26709C24.6373 8.84318 24.0801 8.63064 23.3379 8.63064C22.9738 8.63064 22.6406 8.68808 22.3373 8.80067C22.034 8.9144 21.7686 9.07064 21.5412 9.26709C21.3137 9.46469 21.1322 9.69561 20.9955 9.96099C20.8588 10.2264 20.7829 10.5032 20.768 10.7916H25.5678H25.5667Z" fill="#0075FF"/>
<path id="Vector_14" d="M43.3319 12.0435C43.3319 12.9683 43.1653 13.8069 42.831 14.5571C42.4978 15.3073 42.0429 15.9449 41.4662 16.4676C40.8894 16.9903 40.222 17.397 39.4649 17.6842C38.7067 17.9726 37.8956 18.1162 37.0305 18.1162C36.1655 18.1162 35.3739 17.9714 34.6077 17.6842C33.8414 17.3959 33.1751 16.9903 32.6064 16.4676C32.0377 15.9449 31.5862 15.3073 31.2531 14.5571C30.9188 13.8069 30.7522 12.9683 30.7522 12.0435C30.7522 11.1187 30.9188 10.2846 31.2531 9.54132C31.5862 8.79803 32.0377 8.16962 32.6064 7.6538C33.1751 7.13798 33.8425 6.74393 34.6077 6.47051C35.3728 6.19708 36.1804 6.06152 37.0305 6.06152C37.8807 6.06152 38.7055 6.19823 39.4649 6.47051C40.2231 6.74393 40.8906 7.13798 41.4662 7.6538C42.0429 8.16962 42.4978 8.79918 42.831 9.54132C43.1641 10.2846 43.3319 11.1187 43.3319 12.0435ZM39.7383 12.0435C39.7383 11.6793 39.6774 11.3232 39.5568 10.9739C39.435 10.6247 39.2616 10.3179 39.0341 10.0526C38.8066 9.78717 38.5263 9.57119 38.192 9.40461C37.8588 9.23803 37.4717 9.15417 37.0317 9.15417C36.5917 9.15417 36.2045 9.23803 35.8714 9.40461C35.5382 9.57119 35.2613 9.78717 35.0408 10.0526C34.8202 10.3179 34.6536 10.6247 34.5399 10.9739C34.4261 11.3232 34.3699 11.6793 34.3699 12.0435C34.3699 12.4076 34.4273 12.7638 34.5399 13.113C34.6536 13.4623 34.8248 13.777 35.0523 14.0574C35.2797 14.3377 35.56 14.5617 35.8943 14.7283C36.2275 14.8949 36.6147 14.9787 37.0547 14.9787C37.4947 14.9787 37.8807 14.896 38.215 14.7283C38.5481 14.5617 38.8296 14.3377 39.0571 14.0574C39.2845 13.777 39.4546 13.4623 39.5683 13.113C39.682 12.7649 39.7395 12.4076 39.7395 12.0435H39.7383Z" fill="#0075FF"/>
<path id="Vector_15" d="M156.457 6.42387C158.078 6.42387 159.391 5.11023 159.391 3.48977C159.391 1.8693 158.078 0.555664 156.457 0.555664C154.837 0.555664 153.523 1.8693 153.523 3.48977C153.523 5.11023 154.837 6.42387 156.457 6.42387Z" fill="#0075FF"/>
</g>
</g>
</svg>
