<svg width="274" height="40" viewBox="0 0 274 40" fill="none" xmlns="http://www.w3.org/2000/svg">
<path d="M98.8039 28.0178C98.8039 29.9119 98.5305 31.5622 97.9856 32.9646C97.4408 34.367 96.6737 35.5275 95.6883 36.45C94.7009 37.3705 93.501 38.0589 92.0868 38.5133C90.6706 38.9677 89.1069 39.1939 87.3937 39.1939C85.6805 39.1939 83.9201 38.9342 82.1165 38.415C80.3108 37.8957 78.7471 37.1424 77.4234 36.1569L80.6176 31.5995C81.5519 32.4296 82.5846 33.0472 83.7136 33.4485C84.8426 33.8497 85.952 34.0523 87.0436 34.0523C88.9122 34.0523 90.2949 33.5586 91.1919 32.5732C92.0868 31.5858 92.5353 30.2758 92.5353 28.6393V27.471H92.4192C91.8213 28.2499 91.0168 28.8734 90.0038 29.3395C88.9909 29.8077 87.8363 30.0398 86.5381 30.0398C85.059 30.0398 83.747 29.7742 82.6042 29.2412C81.4615 28.7101 80.4937 27.9883 79.703 27.0795C78.9104 26.1708 78.3065 25.1126 77.8915 23.9049C77.4765 22.6972 77.268 21.4187 77.268 20.0694C77.268 18.7201 77.4745 17.4337 77.8915 16.2142C78.3065 14.9947 78.9104 13.9168 79.703 12.9825C80.4937 12.0483 81.4615 11.3028 82.6042 10.7422C83.747 10.1836 85.0452 9.9043 86.4988 9.9043C87.7183 9.9043 88.8866 10.1521 90.0038 10.6439C91.1191 11.1376 92.016 11.9027 92.6907 12.9412H92.7694V10.4491H98.8059V28.0138L98.8039 28.0178ZM92.728 20.034C92.728 19.3849 92.6179 18.7614 92.3976 18.1654C92.1773 17.5675 91.8587 17.0423 91.4436 16.5879C91.0286 16.1336 90.5349 15.7776 89.9645 15.5179C89.3921 15.2583 88.743 15.1285 88.0172 15.1285C87.2914 15.1285 86.6483 15.2583 86.0897 15.5179C85.531 15.7776 85.057 16.1277 84.6676 16.5702C84.2781 17.0128 83.9791 17.5321 83.7726 18.128C83.5641 18.726 83.4618 19.3613 83.4618 20.036C83.4618 20.7106 83.5661 21.3086 83.7726 21.9045C83.9791 22.5025 84.2781 23.0277 84.6676 23.482C85.057 23.9364 85.531 24.3003 86.0897 24.5717C86.6483 24.8451 87.2895 24.9808 88.0172 24.9808C88.745 24.9808 89.4 24.8451 89.9842 24.5717C90.5684 24.2983 91.0621 23.9423 91.4633 23.5017C91.8646 23.0611 92.1773 22.5418 92.3976 21.9439C92.6179 21.3459 92.728 20.7106 92.728 20.036V20.034Z" fill="#393939"/>
<path d="M116.637 29.8471V27.1602H116.559C116.325 27.6028 116.02 28.0178 115.644 28.4073C115.267 28.7967 114.826 29.135 114.32 29.4202C113.815 29.7054 113.256 29.9395 112.647 30.1205C112.037 30.3014 111.394 30.3939 110.719 30.3939C109.421 30.3939 108.323 30.1598 107.428 29.6936C106.533 29.2255 105.806 28.6236 105.247 27.8821C104.688 27.1425 104.285 26.2987 104.039 25.3507C103.791 24.4026 103.669 23.4368 103.669 22.4494V10.4551H110.095V20.9703C110.095 21.5151 110.135 22.0344 110.211 22.5281C110.29 23.0218 110.438 23.4624 110.66 23.8519C110.88 24.2413 111.171 24.5462 111.537 24.7665C111.901 24.9868 112.381 25.0969 112.979 25.0969C114.094 25.0969 114.946 24.6819 115.53 23.8499C116.114 23.0198 116.407 22.0462 116.407 20.929V10.4531H122.794V29.8471H116.641H116.637Z" fill="#393939"/>
<path d="M134.707 15.2049V22.634C134.707 23.5467 134.882 24.2292 135.232 24.6875C135.582 25.1438 136.211 25.372 137.12 25.372C137.431 25.372 137.763 25.3464 138.113 25.2933C138.464 25.2422 138.757 25.1635 138.989 25.0592L139.067 29.7327C138.625 29.888 138.068 30.0257 137.394 30.1418C136.719 30.2578 136.042 30.3168 135.368 30.3168C134.069 30.3168 132.978 30.1536 132.097 29.829C131.213 29.5045 130.505 29.0364 129.974 28.4227C129.441 27.811 129.06 27.0812 128.826 26.2355C128.591 25.3897 128.475 24.4456 128.475 23.405V15.2049H125.36V10.4528H128.436V5.35059H134.707V10.4528H139.264V15.2049H134.707Z" fill="#393939"/>
<path d="M141.995 13.1011C143.138 12.0114 144.467 11.1932 145.986 10.6483C147.504 10.1035 149.056 9.83008 150.64 9.83008C152.223 9.83008 153.657 10.0307 154.788 10.4339C155.917 10.8371 156.831 11.4607 157.534 12.3025C158.234 13.1463 158.747 14.2104 159.072 15.4968C159.396 16.7812 159.558 18.3075 159.558 20.0719V29.8475H153.716V27.7842H153.6C153.106 28.5887 152.361 29.2122 151.361 29.6528C150.362 30.0934 149.278 30.3157 148.11 30.3157C147.331 30.3157 146.527 30.2114 145.695 30.0049C144.863 29.7964 144.103 29.46 143.417 28.9919C142.729 28.5238 142.164 27.9022 141.723 27.1233C141.281 26.3444 141.061 25.3846 141.061 24.2418C141.061 22.8394 141.444 21.7103 142.209 20.8528C142.974 19.9952 143.962 19.3343 145.169 18.8662C146.377 18.398 147.721 18.0872 149.2 17.9319C150.679 17.7765 152.121 17.6978 153.523 17.6978V17.387C153.523 16.4272 153.185 15.7191 152.51 15.2647C151.835 14.8103 151.003 14.5822 150.018 14.5822C149.109 14.5822 148.232 14.7769 147.388 15.1664C146.544 15.5558 145.824 16.0239 145.227 16.5688L141.995 13.103V13.1011ZM153.718 21.3956H152.9C152.199 21.3956 151.491 21.4291 150.777 21.492C150.063 21.5569 149.428 21.6808 148.869 21.8618C148.311 22.0427 147.85 22.3103 147.487 22.6604C147.123 23.0105 146.942 23.4727 146.942 24.0431C146.942 24.407 147.026 24.7178 147.195 24.9774C147.365 25.237 147.579 25.4455 147.839 25.6009C148.098 25.7563 148.397 25.8665 148.734 25.9314C149.07 25.9963 149.396 26.0297 149.707 26.0297C151.005 26.0297 151.999 25.6737 152.687 24.9577C153.376 24.2437 153.72 23.278 153.72 22.0565V21.3937L153.718 21.3956Z" fill="#393939"/>
<path d="M177.702 16.7232C177.338 16.255 176.844 15.8794 176.223 15.5941C175.599 15.3089 174.964 15.1654 174.315 15.1654C173.666 15.1654 173.03 15.3011 172.483 15.5745C171.937 15.8479 171.47 16.2118 171.081 16.6642C170.692 17.1185 170.387 17.6437 170.166 18.2416C169.946 18.8396 169.836 19.4749 169.836 20.1496C169.836 20.8242 169.94 21.4615 170.147 22.0575C170.353 22.6554 170.658 23.1806 171.061 23.635C171.463 24.0893 171.945 24.4473 172.503 24.705C173.062 24.9646 173.691 25.0944 174.391 25.0944C175.04 25.0944 175.682 24.9725 176.319 24.7246C176.954 24.4788 177.468 24.1208 177.857 23.6546L181.402 27.9779C180.597 28.7568 179.559 29.3666 178.286 29.8092C177.013 30.2497 175.664 30.472 174.236 30.472C172.704 30.472 171.274 30.2379 169.946 29.7718C168.618 29.3037 167.464 28.6231 166.486 27.7262C165.507 26.8312 164.736 25.7474 164.175 24.4748C163.613 23.2022 163.333 21.7624 163.333 20.1515C163.333 18.5406 163.615 17.1402 164.175 15.8675C164.738 14.5949 165.507 13.5112 166.486 12.6162C167.466 11.7213 168.618 11.0328 169.946 10.5529C171.274 10.073 172.692 9.83301 174.197 9.83301C174.897 9.83301 175.591 9.89791 176.28 10.0277C176.968 10.1575 177.629 10.3326 178.266 10.5529C178.902 10.7732 179.486 11.0466 180.019 11.3711C180.55 11.6957 181.012 12.0537 181.402 12.4431L177.702 16.7271V16.7232Z" fill="#393939"/>
<path d="M196.674 29.8473V19.3321C196.674 18.7872 196.634 18.2679 196.558 17.7742C196.479 17.2805 196.33 16.8459 196.109 16.4702C195.889 16.0945 195.596 15.7955 195.232 15.5752C194.868 15.3549 194.4 15.2448 193.83 15.2448C192.712 15.2448 191.857 15.6401 191.259 16.4328C190.661 17.2255 190.364 18.205 190.364 19.3734V29.8492H183.977V0.40625H190.364V12.9081H190.443C190.883 12.1292 191.585 11.4348 192.545 10.8251C193.505 10.2153 194.662 9.91045 196.011 9.91045C197.36 9.91045 198.446 10.1445 199.341 10.6107C200.236 11.0788 200.964 11.6807 201.522 12.4222C202.081 13.1618 202.482 14.0135 202.73 14.9733C202.976 15.9352 203.1 16.895 203.1 17.8549V29.8492H196.674V29.8473Z" fill="#393939"/>
<path d="M214.861 15.2049V22.634C214.861 23.5467 215.036 24.2292 215.386 24.6875C215.736 25.1458 216.366 25.372 217.274 25.372C217.585 25.372 217.918 25.3464 218.268 25.2933C218.618 25.2422 218.911 25.1635 219.145 25.0592L219.224 29.7327C218.781 29.888 218.224 30.0257 217.55 30.1418C216.875 30.2578 216.198 30.3168 215.524 30.3168C214.226 30.3168 213.134 30.1536 212.253 29.829C211.37 29.5045 210.662 29.0364 210.13 28.4227C209.597 27.811 209.216 27.0812 208.982 26.2355C208.748 25.3897 208.632 24.4456 208.632 23.405V15.2049H205.516V10.4528H208.592V5.35059H214.863V10.4528H219.42V15.2049H214.863H214.861Z" fill="#393939"/>
<path d="M241.654 20.3846V21.1635C241.654 21.4232 241.641 21.669 241.615 21.9031H227.555C227.607 22.4479 227.77 22.9416 228.043 23.3822C228.317 23.8248 228.667 24.2064 229.095 24.5309C229.524 24.8555 230.004 25.1092 230.537 25.2901C231.068 25.4711 231.621 25.5636 232.193 25.5636C233.206 25.5636 234.062 25.3747 234.764 24.999C235.464 24.6234 236.037 24.1356 236.477 23.5376L240.917 26.3425C240.008 27.6662 238.806 28.6851 237.315 29.3991C235.822 30.1131 234.089 30.4691 232.117 30.4691C230.663 30.4691 229.286 30.2409 227.988 29.7885C226.69 29.3342 225.553 28.6733 224.579 27.8019C223.606 26.9325 222.841 25.8606 222.282 24.5899C221.723 23.3173 221.444 21.8638 221.444 20.2273C221.444 18.5908 221.718 17.208 222.262 15.9236C222.807 14.6392 223.547 13.5476 224.483 12.6526C225.419 11.7577 226.521 11.0633 227.793 10.5696C229.066 10.0759 230.441 9.83008 231.922 9.83008C233.403 9.83008 234.66 10.07 235.856 10.55C237.05 11.0299 238.076 11.7242 238.932 12.633C239.79 13.5417 240.456 14.6451 240.938 15.9433C241.418 17.2415 241.658 18.7226 241.658 20.3827L241.654 20.3846ZM235.773 17.9319C235.773 16.9189 235.455 16.0495 234.819 15.3217C234.182 14.5959 233.228 14.2321 231.957 14.2321C231.334 14.2321 230.763 14.3304 230.244 14.5232C229.725 14.7179 229.271 14.9854 228.881 15.3217C228.492 15.6601 228.181 16.0554 227.947 16.5098C227.713 16.9641 227.583 17.4382 227.557 17.9319H235.775H235.773Z" fill="#393939"/>
<path d="M255.393 0.705975L254.138 1.31055L270.719 35.7175L271.974 35.1129L255.393 0.705975Z" fill="#393939"/>
<path d="M258.479 10.1511L258.483 10.0626C258.465 10.0567 258.446 10.0528 258.428 10.0469L258.479 10.1511Z" fill="#393939"/>
<path d="M255.991 10.0117C255.252 10.1494 254.573 10.4267 253.964 10.8496C253.055 11.4771 252.353 12.2875 251.861 13.2808H251.782V10.4759H245.63V29.8482H252.016V19.9054C252.016 19.5179 252.095 19.0635 252.25 18.5462C252.406 18.0289 252.66 17.549 253.01 17.1084C253.36 16.6678 253.828 16.2921 254.412 15.9814C254.996 15.6706 255.716 15.5152 256.574 15.5152C256.833 15.5152 257.099 15.529 257.372 15.5545C257.646 15.5801 257.923 15.6332 258.21 15.7099L258.259 14.7107L255.995 10.0117H255.991Z" fill="#393939"/>
<path d="M17.5254 29.8478L6.42596 11.817H6.30991L6.4653 29.8478H0V2.27539H7.59432L18.6544 20.2689H18.7704L18.615 2.27539H25.0803V29.8478H17.5254Z" fill="#0075FF"/>
<path d="M49.6543 20.3846V21.1635C49.6543 21.4232 49.6405 21.669 49.6149 21.9031H35.5553C35.6064 22.4479 35.7697 22.9416 36.0431 23.3822C36.3165 23.8248 36.6666 24.2064 37.0954 24.5309C37.5242 24.8555 38.0041 25.1092 38.5372 25.2901C39.0682 25.4711 39.6209 25.5636 40.1933 25.5636C41.2063 25.5636 42.0619 25.3747 42.7641 24.999C43.4643 24.6234 44.0367 24.1356 44.4773 23.5376L48.9167 26.3425C48.0079 27.6662 46.8061 28.6851 45.3152 29.3991C43.8223 30.1131 42.0894 30.4691 40.1166 30.4691C38.6631 30.4691 37.2862 30.2409 35.988 29.7885C34.6899 29.3342 33.553 28.6733 32.5813 27.8019C31.6077 26.9325 30.8406 25.8606 30.2839 24.5899C29.7253 23.3173 29.446 21.8638 29.446 20.2273C29.446 18.5908 29.7194 17.208 30.2643 15.9236C30.8091 14.6392 31.5487 13.5476 32.4849 12.6526C33.4212 11.7577 34.5227 11.0633 35.7953 10.5696C37.0679 10.0759 38.4428 9.83008 39.9239 9.83008C41.405 9.83008 42.6638 10.07 43.8577 10.55C45.0516 11.0299 46.0784 11.7242 46.934 12.633C47.7916 13.5417 48.4584 14.6451 48.9403 15.9433C49.4202 17.2415 49.6602 18.7226 49.6602 20.3827L49.6543 20.3846ZM43.7731 17.9319C43.7731 16.9189 43.4545 16.0495 42.8192 15.3217C42.1819 14.5959 41.2279 14.2321 39.9573 14.2321C39.3338 14.2321 38.7634 14.3304 38.2441 14.5232C37.7248 14.7179 37.2705 14.9854 36.881 15.3217C36.4916 15.6601 36.1808 16.0554 35.9467 16.5098C35.7127 16.9641 35.5828 17.4382 35.5573 17.9319H43.7751H43.7731Z" fill="#0075FF"/>
<path d="M74.1894 20.0738C74.1894 21.6572 73.9042 23.0931 73.3318 24.3775C72.7614 25.6619 71.9825 26.7535 70.9951 27.6485C70.0077 28.5434 68.8649 29.2397 67.5687 29.7315C66.2705 30.2252 64.8819 30.471 63.4008 30.471C61.9197 30.471 60.5645 30.2232 59.2525 29.7315C57.9406 29.2378 56.7998 28.5434 55.8261 27.6485C54.8525 26.7535 54.0795 25.6619 53.5091 24.3775C52.9367 23.0931 52.6515 21.6572 52.6515 20.0738C52.6515 18.4905 52.9367 17.0625 53.5091 15.7899C54.0795 14.5173 54.8525 13.4414 55.8261 12.5582C56.7998 11.675 57.9425 11.0004 59.2525 10.5323C60.5625 10.0641 61.9453 9.83203 63.4008 9.83203C64.8563 9.83203 66.2686 10.0661 67.5687 10.5323C68.8669 11.0004 70.0097 11.675 70.9951 12.5582C71.9825 13.4414 72.7614 14.5192 73.3318 15.7899C73.9022 17.0625 74.1894 18.4905 74.1894 20.0738ZM68.0368 20.0738C68.0368 19.4503 67.9326 18.8406 67.7261 18.2426C67.5176 17.6447 67.2206 17.1195 66.8311 16.6652C66.4417 16.2108 65.9617 15.841 65.3893 15.5558C64.8189 15.2706 64.1561 15.127 63.4027 15.127C62.6494 15.127 61.9866 15.2706 61.4161 15.5558C60.8457 15.841 60.3717 16.2108 59.9941 16.6652C59.6164 17.1195 59.3312 17.6447 59.1365 18.2426C58.9417 18.8406 58.8454 19.4503 58.8454 20.0738C58.8454 20.6974 58.9437 21.3071 59.1365 21.9051C59.3312 22.503 59.6243 23.0419 60.0137 23.5219C60.4032 24.0018 60.8831 24.3854 61.4555 24.6706C62.0259 24.9558 62.6887 25.0993 63.4421 25.0993C64.1954 25.0993 64.8563 24.9577 65.4287 24.6706C65.9991 24.3854 66.481 24.0018 66.8704 23.5219C67.2599 23.0419 67.551 22.503 67.7457 21.9051C67.9405 21.3091 68.0388 20.6974 68.0388 20.0738H68.0368Z" fill="#0075FF"/>
<path d="M267.874 10.4533C270.648 10.4533 272.897 8.20421 272.897 5.42979C272.897 2.65536 270.648 0.40625 267.874 0.40625C265.099 0.40625 262.85 2.65536 262.85 5.42979C262.85 8.20421 265.099 10.4533 267.874 10.4533Z" fill="#0075FF"/>
</svg>
