<svg width="300" height="140" viewBox="0 0 300 140" fill="none" xmlns="http://www.w3.org/2000/svg">
<rect width="300" height="140" fill="white"/>
<path d="M65 77.0351H87.9506L86.6968 78.7328H65V77.0351Z" fill="#D40511"/>
<path d="M65 73.887H90.2823L89.026 75.5812H65V73.887Z" fill="#D40511"/>
<path d="M65 80.1867H85.6205L84.372 81.8723H65V80.1867Z" fill="#D40511"/>
<path d="M234.709 78.7328H211.849L213.102 77.0369H234.709V78.7328Z" fill="#D40511"/>
<path d="M234.709 81.8723L209.524 81.874L210.772 80.1867H234.709V81.8723Z" fill="#D40511"/>
<path d="M215.431 73.887H234.709V75.583L214.177 75.5838L215.431 73.887Z" fill="#D40511"/>
<path d="M87.229 81.872L98.1197 67.1531H111.634C113.128 67.1531 113.108 67.7172 112.379 68.7013C111.638 69.7004 110.376 71.4185 109.621 72.4328C109.238 72.948 108.544 73.8868 110.841 73.8868H128.946C127.44 75.9386 122.556 81.872 113.786 81.872H87.229Z" fill="#D40511"/>
<path d="M149.6 73.8856L143.695 81.872H128.115C128.115 81.872 134.018 73.8868 134.023 73.8868L149.6 73.8856Z" fill="#D40511"/>
<path d="M172.128 73.8868L166.219 81.872H150.646C150.646 81.872 156.55 73.8868 156.555 73.8868H172.128Z" fill="#D40511"/>
<path d="M177.194 73.8868C177.195 73.8868 176.056 75.4349 175.503 76.1779C173.547 78.8078 175.276 81.8712 181.66 81.8712H206.671L212.579 73.886L177.194 73.8868Z" fill="#D40511"/>
<path d="M94.845 58L89.4229 65.328H118.974C120.467 65.328 120.448 65.8922 119.718 66.8762C118.976 67.8742 117.735 69.612 116.98 70.6263C116.597 71.1404 115.904 72.0791 118.2 72.0791H130.285C130.285 72.0791 132.233 69.4422 133.865 67.238C136.087 64.2393 134.058 58 126.117 58H94.845Z" fill="#D40511"/>
<path d="M173.466 72.0791H135.362L145.782 58H161.355L155.384 66.0723H162.335L168.31 58H183.882L173.466 72.0791Z" fill="#D40511"/>
<path d="M205.45 58L195.033 72.0791H178.53C178.53 72.0791 188.951 58 188.956 58H205.45Z" fill="#D40511"/>
</svg>
