<svg width="24" height="24" viewBox="0 0 24 24" fill="none" xmlns="http://www.w3.org/2000/svg">
<path fill-rule="evenodd" clip-rule="evenodd" d="M7 7C7 4.23858 9.23858 2 12 2C14.7614 2 17 4.23858 17 7C17 9.76142 14.7614 12 12 12C9.23858 12 7 9.76142 7 7ZM15 7C15 5.34315 13.6569 4 12 4C10.3431 4 9 5.34315 9 7C9 8.65685 10.3431 10 12 10C13.6569 10 15 8.65685 15 7ZM1.5 17C1.5 14.2386 3.73858 12 6.5 12C9.26142 12 11.5 14.2386 11.5 17C11.5 19.7614 9.26142 22 6.5 22C3.73858 22 1.5 19.7614 1.5 17ZM9.5 17C9.5 15.3431 8.15685 14 6.5 14C4.84315 14 3.5 15.3431 3.5 17C3.5 18.6569 4.84315 20 6.5 20C8.15685 20 9.5 18.6569 9.5 17ZM17.5 12C14.7386 12 12.5 14.2386 12.5 17C12.5 19.7614 14.7386 22 17.5 22C20.2614 22 22.5 19.7614 22.5 17C22.5 14.2386 20.2614 12 17.5 12ZM17.5 14C19.1569 14 20.5 15.3431 20.5 17C20.5 18.6569 19.1569 20 17.5 20C15.8431 20 14.5 18.6569 14.5 17C14.5 15.3431 15.8431 14 17.5 14Z" fill="#0075FF"/>
</svg>
