<svg width="24" height="24" viewBox="0 0 24 24" fill="none" xmlns="http://www.w3.org/2000/svg">
<path fill-rule="evenodd" clip-rule="evenodd" d="M5 17.9999H5.09L9.26 17.6199C9.71679 17.5744 10.144 17.3731 10.47 17.0499L19.47 8.04986C20.1973 7.28152 20.166 6.06963 19.4 5.33986L16.66 2.59986C15.9197 1.90451 14.7758 1.87441 14 2.52986L5 11.5299C4.67676 11.8558 4.4755 12.2831 4.43 12.7399L4 16.9099C3.97272 17.2064 4.07903 17.4997 4.29 17.7099C4.47872 17.897 4.73419 18.0014 5 17.9999ZM15.27 3.99986L18 6.72986L16 8.67986L13.32 5.99986L15.27 3.99986ZM5 19.9999H19C19.5523 19.9999 20 20.4476 20 20.9999C20 21.5521 19.5523 21.9999 19 21.9999H5C4.44771 21.9999 4 21.5521 4 20.9999C4 20.4476 4.44771 19.9999 5 19.9999Z" fill="#0075FF"/>
</svg>
