<svg width="33" height="33" viewBox="0 0 33 33" fill="none" xmlns="http://www.w3.org/2000/svg">
<path fill-rule="evenodd" clip-rule="evenodd" d="M23.7 29.8333H23.7C12.3658 29.8186 3.18132 20.6341 3.16666 9.29999H3.16666C3.16666 5.91264 5.91264 3.16666 9.29999 3.16666V3.16666C9.64444 3.16403 9.98832 3.19529 10.3267 3.25999L10.3267 3.25999C10.6537 3.30839 10.9753 3.38877 11.2867 3.49999V3.49999C11.7322 3.65633 12.0619 4.0367 12.1533 4.49999L13.98 12.5C14.08 12.9412 13.9495 13.4031 13.6333 13.7267C13.46 13.9133 13.4467 13.9267 11.8067 14.78C13.12 17.6611 15.4243 19.9749 18.3 21.3C19.1667 19.6467 19.18 19.6333 19.3667 19.46C19.6902 19.1438 20.1521 19.0133 20.5933 19.1133L28.5933 20.94C29.0414 21.0439 29.4042 21.3715 29.5533 21.8067C29.6659 22.1231 29.7506 22.4488 29.8067 22.78C29.8603 23.1151 29.8871 23.4539 29.8867 23.7933V23.7933C29.8355 27.165 27.072 29.863 23.7 29.8333L23.7 29.8333Z" fill="#0075FF"/>
</svg>
