<svg width="32" height="32" viewBox="0 0 32 32" fill="none" xmlns="http://www.w3.org/2000/svg">
<path fill-rule="evenodd" clip-rule="evenodd" d="M23.2 29.3333H23.2C11.8658 29.3186 2.68132 20.1341 2.66666 8.79999H2.66666C2.66666 5.41264 5.41264 2.66666 8.79999 2.66666V2.66666C9.14444 2.66403 9.48832 2.69529 9.82666 2.75999L9.82666 2.75999C10.1537 2.80839 10.4753 2.88877 10.7867 2.99999V2.99999C11.2322 3.15633 11.5619 3.5367 11.6533 3.99999L13.48 12C13.58 12.4412 13.4495 12.9031 13.1333 13.2267C12.96 13.4133 12.9467 13.4267 11.3067 14.28C12.62 17.1611 14.9243 19.4749 17.8 20.8C18.6667 19.1467 18.68 19.1333 18.8667 18.96C19.1902 18.6438 19.6521 18.5133 20.0933 18.6133L28.0933 20.44C28.5414 20.5439 28.9042 20.8715 29.0533 21.3067C29.1659 21.6231 29.2506 21.9488 29.3067 22.28C29.3603 22.6151 29.3871 22.9539 29.3867 23.2933V23.2933C29.3355 26.665 26.572 29.363 23.2 29.3333L23.2 29.3333Z" fill="white"/>
</svg>
