<svg width="169" height="32" viewBox="0 0 169 32" fill="none" xmlns="http://www.w3.org/2000/svg">
<g id="stars-5 1" clip-path="url(#clip0_124_10475)">
<g id="Trustpilot ratings 5star RGB">
<g id="Group">
<path id="Rectangle path" d="M31.8246 0.461426H0.286133V31.9999H31.8246V0.461426Z" fill="#00B67A"/>
<path id="Rectangle path_2" d="M65.9906 0.461426H34.4521V31.9999H65.9906V0.461426Z" fill="#00B67A"/>
<path id="Rectangle path_3" d="M100.159 0.461426H68.6201V31.9999H100.159V0.461426Z" fill="#00B67A"/>
<path id="Rectangle path_4" d="M134.325 0.461426H102.786V31.9999H134.325V0.461426Z" fill="#00B67A"/>
<path id="Rectangle path_5" d="M168.491 0.461426H136.952V31.9999H168.491V0.461426Z" fill="#00B67A"/>
<path id="Shape" d="M16.0541 21.7167L20.8506 20.5012L22.8546 26.6774L16.0541 21.7167ZM27.0925 13.7335H18.6494L16.0541 5.7832L13.4587 13.7335H5.01562L11.849 18.6614L9.25361 26.6117L16.0869 21.6838L20.2921 18.6614L27.0925 13.7335Z" fill="white"/>
<path id="Shape_2" d="M50.2221 21.7167L55.0185 20.5012L57.0225 26.6774L50.2221 21.7167ZM61.2605 13.7335H52.8174L50.2221 5.7832L47.6267 13.7335H39.1836L46.0169 18.6614L43.4216 26.6117L50.2549 21.6838L54.46 18.6614L61.2605 13.7335Z" fill="white"/>
<path id="Shape_3" d="M84.3882 21.7167L89.1846 20.5012L91.1886 26.6774L84.3882 21.7167ZM95.4266 13.7335H86.9835L84.3882 5.7832L81.7928 13.7335H73.3497L80.183 18.6614L77.5877 26.6117L84.421 21.6838L88.6261 18.6614L95.4266 13.7335Z" fill="white"/>
<path id="Shape_4" d="M118.554 21.7167L123.351 20.5012L125.355 26.6774L118.554 21.7167ZM129.593 13.7335H121.149L118.554 5.7832L115.959 13.7335H107.516L114.349 18.6614L111.754 26.6117L118.587 21.6838L122.792 18.6614L129.593 13.7335Z" fill="white"/>
<path id="Shape_5" d="M152.722 21.7167L157.519 20.5012L159.523 26.6774L152.722 21.7167ZM163.761 13.7335H155.317L152.722 5.7832L150.127 13.7335H141.684L148.517 18.6614L145.922 26.6117L152.755 21.6838L156.96 18.6614L163.761 13.7335Z" fill="white"/>
</g>
</g>
</g>
<defs>
<clipPath id="clip0_124_10475">
<rect width="168.205" height="31.5385" fill="white" transform="translate(0 0.461426)"/>
</clipPath>
</defs>
</svg>
