<svg width="20" height="16" viewBox="0 0 20 16" fill="none" xmlns="http://www.w3.org/2000/svg">
<path fill-rule="evenodd" clip-rule="evenodd" d="M6.29 16.002C13.837 16.002 17.965 9.84569 17.965 4.50753C17.965 4.33228 17.965 4.15802 17.953 3.98474C18.756 3.4137 19.449 2.70483 20 1.89357C19.252 2.22044 18.457 2.43507 17.644 2.52958C18.5 2.02451 19.141 1.23097 19.448 0.294675C18.642 0.765285 17.761 1.09707 16.842 1.27528C15.288 -0.351185 12.689 -0.429945 11.036 1.10003C9.971 2.08654 9.518 3.55746 9.849 4.96042C6.55 4.79699 3.476 3.26307 1.392 0.739695C0.303 2.5857 0.86 4.94664 2.663 6.13203C2.01 6.11332 1.371 5.94004 0.8 5.62696V5.67815C0.801 7.60098 2.178 9.25698 4.092 9.63799C3.488 9.80044 2.854 9.82406 2.24 9.7069C2.777 11.3531 4.318 12.4804 6.073 12.5129C4.62 13.6372 2.825 14.2476 0.977 14.2457C0.651 14.2447 0.325 14.226 0 14.1876C1.877 15.373 4.06 16.0021 6.29 15.9991" fill="#777777"/>
</svg>
